<svg id="Layer_1" data-name="Layer 1" xmlns="http://www.w3.org/2000/svg" viewBox="0 0 42.14 39.77"><defs><style>.cls-1,.cls-2,.cls-3{fill:none;stroke:#ed1c24;stroke-linecap:round;}.cls-1{stroke-linejoin:round;}.cls-1,.cls-2{stroke-width:2.5px;}.cls-2,.cls-3{stroke-miterlimit:10;}.cls-4{fill:#ed1c24;}</style></defs><title>Giỏ hàng</title><path class="cls-1" d="M15.46,18l31.86.83C46.32,24.12,44,33.69,44,33.69c-1.4,0-22.79.93-22.93,1-.9.46-4.29,2.28-5.05,3.83s.86,2.7,1.67,2.92a7.85,7.85,0,0,0,1.84.25H47.32" transform="translate(-6.43 -7.7)"/><line class="cls-2" x1="14.14" y1="26.34" x2="6.41" y2="2.62"/><line class="cls-2" x1="6.35" y1="2.59" x2="1.25" y2="1.25"/><circle class="cls-3" cx="12.39" cy="37.15" r="2.12"/><circle class="cls-3" cx="38.62" cy="37.15" r="2.12"/><line class="cls-3" x1="10.65" y1="16.14" x2="40.06" y2="16.22"/><line class="cls-3" x1="12.46" y1="21.17" x2="39.2" y2="21.17"/><line class="cls-3" x1="25.73" y1="26.15" x2="25.73" y2="10.78"/><line class="cls-3" x1="14.05" y1="26.76" x2="14.05" y2="10.34"/><line class="cls-3" x1="19.74" y1="26.42" x2="19.74" y2="10.34"/><line class="cls-3" x1="37.37" y1="25.88" x2="37.37" y2="11.08"/><line class="cls-3" x1="31.73" y1="25.88" x2="31.73" y2="10.78"/><circle class="cls-4" cx="12.39" cy="37.15" r="0.69"/><circle class="cls-4" cx="38.62" cy="37.15" r="0.69"/></svg>