<svg id="Layer_1" data-name="Layer 1" xmlns="http://www.w3.org/2000/svg" viewBox="0 0 55 37.75459"><defs><style>.cls-1,.cls-2,.cls-5{fill:#fff;}.cls-2,.cls-4,.cls-5,.cls-6,.cls-7,.cls-8{stroke:#414042;}.cls-2,.cls-4,.cls-8{stroke-miterlimit:10;}.cls-3,.cls-4,.cls-6{fill:#414042;}.cls-4{stroke-width:0.25px;}.cls-5,.cls-6,.cls-7{stroke-linecap:round;stroke-linejoin:round;}.cls-7,.cls-8{fill:none;}.cls-8{stroke-width:0.75px;stroke-dasharray:0.1 0.3 0.1 0.3 0.1 0.3;}</style></defs><title>Crossbody Bags đen</title><rect class="cls-1" width="55" height="37.25459"/><path class="cls-2" d="M43.50793,24.79852V15.6288a3.296,3.296,0,0,0-3.28635-3.28635H12.981A3.296,3.296,0,0,0,9.69465,15.6288v9.16972"/><path class="cls-2" d="M9.69465,24.79852v9.16972A3.296,3.296,0,0,0,12.981,37.25459H40.22159a3.296,3.296,0,0,0,3.28635-3.28635V24.79852"/><path class="cls-2" d="M9.71116,15.30067l1.5392,8.32595a2.99272,2.99272,0,0,0,2.98394,2.98394h24.734a2.99272,2.99272,0,0,0,2.98394-2.98394l1.53931-8.32595"/><path class="cls-3" d="M39.06306,33.151l-.0033.00017c-.00661-.008-.01808-.0167-.03981.00362a4.00389,4.00389,0,0,1-.63618.77725,1.00281,1.00281,0,0,1-.34918.19186c-.01592.00374-.03163.00588-.04744.00881a.77665.77665,0,0,1-.86982-.2769.48117.48117,0,0,1-.1037-.15508,1.86986,1.86986,0,0,1-.14619-1.17958,1.8413,1.8413,0,0,1,.49983-1.09834.75.75,0,0,1,.3739-.18892.69345.69345,0,0,1,.4848.05443.39459.39459,0,0,1,.11512.07767.30479.30479,0,0,1,.08538.25506.36329.36329,0,0,1-.02654.08725c-.07261.14377-.18205.13641-.19374.17188a.23686.23686,0,0,0,.06983.17964.2919.2919,0,0,0,.12724.07862.24284.24284,0,0,0,.14338-.006.32683.32683,0,0,0,.13357-.086A.424.424,0,0,0,38.773,31.888a.53533.53533,0,0,0,.02171-.22511.85143.85143,0,0,0-.131-.39014.80828.80828,0,0,0-.2589-.24971.91243.91243,0,0,0-.33075-.118,1.08538,1.08538,0,0,0-.34712.001,1.32771,1.32771,0,0,0-.43809.15822,1.53648,1.53648,0,0,0-.35239.28116,1.78316,1.78316,0,0,0-.26651.37412,2.38563,2.38563,0,0,0-.18139.43722,2.63192,2.63192,0,0,0-.09694.4713,2.75034,2.75034,0,0,0-.01334.4746,2.302,2.302,0,0,0,.0703.447,1.679,1.679,0,0,0,.15439.39114,1.22663,1.22663,0,0,0,.23674.30562.8545.8545,0,0,0,.3181.18828,1.17023,1.17023,0,0,0,.39733.06152,1.36237,1.36237,0,0,0,.39895-.06734,1.53593,1.53593,0,0,0,.37419-.18228,1.50545,1.50545,0,0,0,.3262-.28182,1.8752,1.8752,0,0,0,.25377-.36772,1.33382,1.33382,0,0,0,.13062-.29373C39.06953,33.22033,39.08069,33.15984,39.06306,33.151Z"/><path class="cls-4" d="M41.11312,35.31286l-6.75776.03515-.02742-5.273,6.75776-.03515Zm-6.68082-.04225,6.60309-.03434-.02662-5.11906-6.60309.03434Z"/><path class="cls-5" d="M44.64887,22.7464,14.731,11.93125l-2.96628-.096.76222-1.03842a1.13526,1.13526,0,0,1,.34943-.26137,7.8073,7.8073,0,0,1,2.63457-.46643c2.1568-.1277,21.14142,6.022,28.02362,8.47839,1.58311.565,2.54631.912,2.54631.912Z"/><polygon class="cls-6" points="46.132 19.144 43.888 18.645 43.947 16.92 46.132 19.144"/><path class="cls-7" d="M37.7455,20.4198a2.46166,2.46166,0,0,1-1.46426.06484c-1.27912-.3413-.99121-1.57819-.58627-2.85582s.77356-2.11219,2.05268-1.77088a2.27136,2.27136,0,0,1,1.29783.90968"/><circle class="cls-8" cx="19.2466" cy="23.96002" r="1.0034"/><circle class="cls-8" cx="33.9561" cy="23.96002" r="1.0034"/></svg>