<svg id="Layer_1" data-name="Layer 1" xmlns="http://www.w3.org/2000/svg" viewBox="0 0 43.2 43.89"><defs><style>.cls-1,.cls-3{fill:#fff;}.cls-1,.cls-2,.cls-3,.cls-5{stroke:#ed1c24;stroke-miterlimit:10;}.cls-2{fill:none;stroke-linecap:round;}.cls-3{stroke-width:0.5px;}.cls-4,.cls-5{fill:#ed1c24;}.cls-5{stroke-width:0.25px;}</style></defs><title>ví đỏ</title><path class="cls-1" d="M43.79,26.26V46.58A2.43,2.43,0,0,1,41.36,49H8.82A2.43,2.43,0,0,1,6.4,46.58V23.73a2.43,2.43,0,0,1,2.42-2.42H19.75" transform="translate(-5.9 -5.61)"/><path class="cls-1" d="M23.14,21.31" transform="translate(-5.9 -5.61)"/><path class="cls-1" d="M19.75,21.31" transform="translate(-5.9 -5.61)"/><line class="cls-2" x1="5.6" y1="20.64" x2="37.89" y2="20.64"/><path class="cls-2" d="M40.81,28.74" transform="translate(-5.9 -5.61)"/><path class="cls-2" d="M42.77,26.39" transform="translate(-5.9 -5.61)"/><line class="cls-2" x1="42.7" y1="13.81" x2="37.06" y2="20.56"/><path class="cls-2" d="M19.75,21.31,32.38,6.21a.28.28,0,0,1,.39,0L48.6,19.42" transform="translate(-5.9 -5.61)"/><line class="cls-2" x1="9.71" y1="20.64" x2="13.85" y2="15.7"/><path class="cls-2" d="M15.61,26.26" transform="translate(-5.9 -5.61)"/><path class="cls-2" d="M14,28.2" transform="translate(-5.9 -5.61)"/><path class="cls-2" d="M34.56,11.05a2.17,2.17,0,0,1-3.06.27" transform="translate(-5.9 -5.61)"/><path class="cls-2" d="M43.28,18.35a2.17,2.17,0,0,0,.28,3.06" transform="translate(-5.9 -5.61)"/><line class="cls-2" x1="37.38" y1="12.73" x2="28.66" y2="5.44"/><line class="cls-2" x1="33.6" y1="20.64" x2="37.65" y2="15.8"/><path class="cls-2" d="M39.5,26.26" transform="translate(-5.9 -5.61)"/><path class="cls-2" d="M37.47,28.67" transform="translate(-5.9 -5.61)"/><path class="cls-2" d="M17.32,28.26" transform="translate(-5.9 -5.61)"/><path class="cls-2" d="M17.32,28.26" transform="translate(-5.9 -5.61)"/><path class="cls-2" d="M19,26.26" transform="translate(-5.9 -5.61)"/><line class="cls-2" x1="17.24" y1="15.7" x2="13.1" y2="20.64"/><line class="cls-2" x1="25.6" y1="5.71" x2="17.24" y2="15.7"/><path class="cls-2" d="M21.31,23.5c4.2-.48,9.32,0,9.32,1.94" transform="translate(-5.9 -5.61)"/><path class="cls-1" d="M34.38,28.59h4.38a.45.45,0,0,1,.45.45v4.28a.45.45,0,0,1-.45.45H34.42a2.61,2.61,0,0,1-2.61-2.61v0a2.56,2.56,0,0,1,2.56-2.56Z"/><circle class="cls-3" cx="34.05" cy="31.17" r="0.63"/><path class="cls-4" d="M27.1,43.61h0s0,0-.06,0a6,6,0,0,1-1,1.16,1.5,1.5,0,0,1-.52.28h-.07a1.16,1.16,0,0,1-1.3-.42.72.72,0,0,1-.15-.23,2.8,2.8,0,0,1-.21-1.77A2.76,2.76,0,0,1,24.57,41a1.12,1.12,0,0,1,.56-.28,1,1,0,0,1,.73.09.59.59,0,0,1,.17.12.46.46,0,0,1,.13.38.54.54,0,0,1,0,.13c-.11.21-.27.2-.29.26a.35.35,0,0,0,.1.27.44.44,0,0,0,.19.12.36.36,0,0,0,.21,0,.49.49,0,0,0,.2-.13.63.63,0,0,0,.14-.24.8.8,0,0,0,0-.34,1.27,1.27,0,0,0-.19-.59,1.21,1.21,0,0,0-.39-.38,1.37,1.37,0,0,0-.49-.18,1.62,1.62,0,0,0-.52,0,2,2,0,0,0-.66.23,2.3,2.3,0,0,0-.53.42,2.67,2.67,0,0,0-.4.56,3.57,3.57,0,0,0-.27.65,3.94,3.94,0,0,0-.15.7,4.12,4.12,0,0,0,0,.71,3.45,3.45,0,0,0,.1.67,2.51,2.51,0,0,0,.23.59,1.84,1.84,0,0,0,.35.46,1.28,1.28,0,0,0,.47.28,1.75,1.75,0,0,0,.59.1,2,2,0,0,0,.6-.1,2.3,2.3,0,0,0,.56-.27,2.25,2.25,0,0,0,.49-.42,2.81,2.81,0,0,0,.38-.55,2,2,0,0,0,.2-.44C27.11,43.71,27.13,43.62,27.1,43.61Z" transform="translate(-5.9 -5.61)"/><path class="cls-5" d="M30.15,46.86H20V39H30.15Zm-10-.12H30V39.08H20.15Z" transform="translate(-5.9 -5.61)"/></svg>