<svg id="Layer_1" data-name="Layer 1" xmlns="http://www.w3.org/2000/svg" viewBox="0 0 45.56705 49.99606"><defs><style>.cls-1,.cls-10,.cls-11,.cls-2,.cls-3,.cls-8,.cls-9{fill:none;}.cls-1,.cls-10,.cls-11,.cls-12,.cls-2,.cls-4,.cls-5,.cls-7,.cls-8{stroke:#ed1c24;}.cls-1,.cls-11,.cls-12,.cls-2,.cls-3,.cls-4,.cls-5,.cls-7{stroke-miterlimit:10;}.cls-2,.cls-3,.cls-8{stroke-width:0.75px;}.cls-3,.cls-9{stroke:#414042;}.cls-4,.cls-5{fill:#fff;}.cls-12,.cls-4,.cls-7{stroke-width:0.25px;}.cls-6,.cls-7{fill:#ed1c24;}.cls-10,.cls-8,.cls-9{stroke-linecap:round;stroke-linejoin:round;}.cls-10,.cls-11,.cls-9{stroke-width:0.5px;}.cls-12{fill:#414042;}</style></defs><title>Tote &amp;amp; Acessories đỏ</title><path class="cls-1" d="M37.75384,20.88852,35.88442,48.86539a2.25208,2.25208,0,0,1-2.12087,2.352H8.5364a2.25208,2.25208,0,0,1-2.12087-2.352L4.56413,20.88852" transform="translate(-4.06413 -1.72137)"/><line class="cls-1" x1="2.2676" y1="46.75741" x2="31.97442" y2="46.71386"/><line class="cls-2" x1="0.8052" y1="22.88616" x2="33.38472" y2="22.8384"/><path class="cls-1" d="M12.32505,20.317c-4.65761.11555-7.76092.32234-7.76092.55821,0,.23715,3.137.44491,7.83668.56008" transform="translate(-4.06413 -1.72137)"/><path class="cls-3" d="M12.32286,20.317" transform="translate(-4.06413 -1.72137)"/><path class="cls-1" d="M28.98063,20.29468c-2.338-.048-5.0016-.07525-7.828-.07525-2.85835,0-5.55012.02781-7.90708.07688" transform="translate(-4.06413 -1.72137)"/><path class="cls-3" d="M28.98063,20.29468" transform="translate(-4.06413 -1.72137)"/><path class="cls-1" d="M29.90281,21.43534c4.70823-.11517,7.851-.32294,7.851-.56011s-3.14605-.44516-7.85834-.56029" transform="translate(-4.06413 -1.72137)"/><path class="cls-3" d="M29.903,21.43534" transform="translate(-4.06413 -1.72137)"/><path class="cls-1" d="M13.24921,21.45422c2.35608.049,5.04653.0768,7.90338.0768,2.82465,0,5.48663-.02716,7.82359-.07516" transform="translate(-4.06413 -1.72137)"/><rect class="cls-2" x="13.33683" y="25.9211" width="7.51605" height="3.23711" rx="1.61855" ry="1.61855"/><rect class="cls-4" x="8.11482" y="22.16702" width="2.1074" height="1.60009" rx="0.5431" ry="0.5431"/><rect class="cls-4" x="28.01882" y="23.88839" width="2.1074" height="1.60009" rx="0.5431" ry="0.5431" transform="translate(54.0809 47.6555) rotate(-180)"/><path class="cls-5" d="M47.50739,51.21743H41.42313A1.302,1.302,0,0,1,40.07651,49.974a201.05409,201.05409,0,0,1,0-21.09276,1.302,1.302,0,0,1,1.34662-1.24346h6.08427A1.302,1.302,0,0,1,48.854,28.88121a200.78242,200.78242,0,0,1,0,21.09276A1.302,1.302,0,0,1,47.50739,51.21743Z" transform="translate(-4.06413 -1.72137)"/><path class="cls-6" d="M46.07149,30.96127l.00011.00193c-.005.00387-.01045.01059.00228.02331a2.48479,2.48479,0,0,1,.48679.3723.57692.57692,0,0,1,.12021.2044l.00553.02777a.43111.43111,0,0,1,.02206.19092.44971.44971,0,0,1-.19521.31842.30342.30342,0,0,1-.09707.06075,1.24357,1.24357,0,0,1-.7385.08586,1.18791,1.18791,0,0,1-.6878-.2924.42992.42992,0,0,1-.11837-.21888.38259.38259,0,0,1,.034-.28386.23084.23084,0,0,1,.0486-.06742.19965.19965,0,0,1,.15967-.05.2396.2396,0,0,1,.05463.01552c.09.04248.08545.10656.10766.1134a.15413.15413,0,0,0,.11246-.04092.16945.16945,0,0,0,.04919-.07452.13343.13343,0,0,0-.00379-.08394.19045.19045,0,0,0-.05389-.07818.27.27,0,0,0-.09921-.05428.35725.35725,0,0,0-.14095-.01266.55806.55806,0,0,0-.24424.07682.489.489,0,0,0-.15628.15164.51227.51227,0,0,0-.07382.19368.59482.59482,0,0,0,.0007.20324.74583.74583,0,0,0,.09917.25646.91287.91287,0,0,0,.17612.20626,1.11877,1.11877,0,0,0,.2343.156,1.553,1.553,0,0,0,.27379.10611,1.7483,1.7483,0,0,0,.29511.05665,1.84074,1.84074,0,0,0,.29715.0077,1.53371,1.53371,0,0,0,.27982-.04126,1.09512,1.09512,0,0,0,.24486-.09048.76359.76359,0,0,0,.19129-.13868.49454.49454,0,0,0,.1178-.18629.64459.64459,0,0,0,.03842-.23265.751.751,0,0,0-.04226-.23357.87622.87622,0,0,0-.11422-.219.90134.90134,0,0,0-.17653-.19092,1.17874,1.17874,0,0,0-.23029-.1485.86569.86569,0,0,0-.18394-.07641C46.11489,30.95747,46.077,30.951,46.07149,30.96127Z" transform="translate(-4.06413 -1.72137)"/><path class="cls-7" d="M47.42453,29.76047l.02366,3.95664-3.30147.01727-.02366-3.95664Zm-.02481,3.91161L47.3766,29.806l-3.20506.01676.02312,3.86608Z" transform="translate(-4.06413 -1.72137)"/><line class="cls-8" x1="37.96686" y1="45.31838" x2="39.6223" y2="45.31838"/><path class="cls-9" d="M44.14967,23.92343" transform="translate(-4.06413 -1.72137)"/><path class="cls-10" d="M42.81986,27.63775a.893.893,0,0,1-.96108-.79623l.02325-2.73671c.08837-.58926.40923-.9139.93782-.9139h0a1.43555,1.43555,0,0,1,1.24532.91412s.386,2.83633-.06892,3.32071" transform="translate(-4.06413 -1.72137)"/><line class="cls-10" x1="42.1467" y1="25.91355" x2="42.14664" y2="25.91255"/><path class="cls-10" d="M42.83563,27.42291s-.09535-2.83263.00631-3.16605,1.09056-.796,1.14926,3.113" transform="translate(-4.06413 -1.72137)"/><polyline class="cls-8" points="37.794 28.039 37.637 37.808 37.794 47.647"/><path class="cls-8" d="M12.27815,21.53174c-.2089-1.74541.01127-3.7414-.00209-5.99848-.04375-7.392,3.01926-13.43689,8.85482-13.43689" transform="translate(-4.06413 -1.72137)"/><path class="cls-10" d="M13.57793,24.68843a6.31467,6.31467,0,0,1-1.16609-3.1567" transform="translate(-4.06413 -1.72137)"/><path class="cls-2" d="M13.37683,20.296c.00856-.99313.03858-2.12741.0287-3.63077C13.35334,8.71985,15.47272,3.15133,21.24459,3.182" transform="translate(-4.06413 -1.72137)"/><path class="cls-11" d="M13.25111,21.53111c-.00946-.39751-.00981-.803-.00608-1.23515" transform="translate(-4.06413 -1.72137)"/><path class="cls-11" d="M13.57793,24.68843a19.11572,19.11572,0,0,1-.32682-3.15732" transform="translate(-4.06413 -1.72137)"/><path class="cls-8" d="M30.028,20.2943c.038-1.43859-.09128-3.02885-.081-4.77567.04356-7.38394-3.00606-13.42227-8.8161-13.42227" transform="translate(-4.06413 -1.72137)"/><path class="cls-10" d="M28.64766,24.68843a7.26038,7.26038,0,0,0,1.24808-4.373" transform="translate(-4.06413 -1.72137)"/><path class="cls-2" d="M28.85159,20.2943c-.00858-.99273-.03856-2.12658-.02869-3.6291C28.8751,8.71985,26.75572,3.15133,20.98384,3.182" transform="translate(-4.06413 -1.72137)"/><path class="cls-11" d="M28.97616,21.45582c.00782-.374.00789-.756.00438-1.16153" transform="translate(-4.06413 -1.72137)"/><path class="cls-11" d="M28.64766,24.68843a19.16032,19.16032,0,0,0,.32851-3.23261" transform="translate(-4.06413 -1.72137)"/><rect class="cls-6" x="16.78881" y="1.43746" width="0.55588" height="0.27353" rx="0.13676" ry="0.13676"/><path class="cls-6" d="M31.23187,44.11607l-.0033.00017c-.00661-.008-.01808-.0167-.03981.00362a4.00389,4.00389,0,0,1-.63618.77725,1.00281,1.00281,0,0,1-.34918.19186c-.01592.00374-.03163.00588-.04744.00881a.77665.77665,0,0,1-.86982-.2769.48117.48117,0,0,1-.1037-.15508,1.86986,1.86986,0,0,1-.14619-1.17958,1.8413,1.8413,0,0,1,.49983-1.09834A.75.75,0,0,1,29.91,42.199a.69345.69345,0,0,1,.4848.05443.39459.39459,0,0,1,.11512.07767.30479.30479,0,0,1,.08538.25506.36329.36329,0,0,1-.02654.08725c-.07261.14377-.18205.13641-.19374.17188a.23686.23686,0,0,0,.06983.17964.2919.2919,0,0,0,.12724.07862.24284.24284,0,0,0,.14338-.006.32683.32683,0,0,0,.13357-.086.424.424,0,0,0,.09277-.15842.53533.53533,0,0,0,.02171-.22511.85143.85143,0,0,0-.131-.39014.80828.80828,0,0,0-.2589-.24971.91243.91243,0,0,0-.33075-.118,1.08538,1.08538,0,0,0-.34712.001,1.32771,1.32771,0,0,0-.43809.15822,1.53648,1.53648,0,0,0-.35239.28116,1.78316,1.78316,0,0,0-.26651.37412,2.38563,2.38563,0,0,0-.18139.43722,2.63192,2.63192,0,0,0-.09694.4713,2.75034,2.75034,0,0,0-.01334.4746,2.302,2.302,0,0,0,.0703.447,1.679,1.679,0,0,0,.15439.39114,1.22663,1.22663,0,0,0,.23674.30562.8545.8545,0,0,0,.3181.18828,1.17023,1.17023,0,0,0,.39733.06152,1.36237,1.36237,0,0,0,.39895-.06734,1.53593,1.53593,0,0,0,.37419-.18228,1.50545,1.50545,0,0,0,.3262-.28182A1.8752,1.8752,0,0,0,31.077,44.562a1.33382,1.33382,0,0,0,.13062-.29373C31.23834,44.1854,31.2495,44.12492,31.23187,44.11607Z" transform="translate(-4.06413 -1.72137)"/><path class="cls-12" d="M33.28193,46.27793l-6.75776.03515-.02742-5.273,6.75776-.03515Zm-6.68082-.04225,6.60309-.03434-.02662-5.11906-6.60309.03434Z" transform="translate(-4.06413 -1.72137)"/></svg>